<svg version="1.1" id="Layer_1" xmlns="http://www.w3.org/2000/svg" xmlns:xlink="http://www.w3.org/1999/xlink" x="0px" y="0px" viewBox="0 0 500 500" style="width: 166px;" xml:space="preserve" data-imageid="colosseum-59" imageName="Colosseum" class="illustrations_image">
<style type="text/css">
	.st0_colosseum-59{fill:#FFFFFF;}
	.st1_colosseum-59{fill:#093F68;}
	.st2_colosseum-59{fill:#68E1FD;}
	.st3_colosseum-59{fill:#DFEAEF;}
	.st4_colosseum-59{fill:#70CC40;}
</style>
<g id="circle_colosseum-59">
	<path class="st0_colosseum-59" d="M427.8,250c0,98.2-79.6,177.8-177.8,177.8c-65.4,0-125.5-35.9-156.5-93.4c-3-5.5-5.7-11.2-8.1-17.1&#10;&#9;&#9;c-37.2-90.9,6.3-194.8,97.2-232s194.8,6.3,232,97.2C423.3,204,427.8,226.9,427.8,250z"/>
	<path class="st1_colosseum-59" d="M250,429.7c-66.1,0-126.8-36.2-158.2-94.4c-3-5.6-5.7-11.4-8.2-17.2c-8.9-21.6-13.4-44.7-13.4-68.1&#10;&#9;&#9;c0-99.1,80.6-179.7,179.7-179.7S429.7,150.9,429.7,250c0,23.4-4.5,46.5-13.4,68.1c-2.4,5.9-5.1,11.6-8.2,17.2&#10;&#9;&#9;C376.9,393.5,316.1,429.8,250,429.7z M250,74c-97,0-175.9,79-175.9,176c0,22.9,4.4,45.5,13.1,66.6c2.4,5.8,5,11.4,8,16.9&#10;&#9;&#9;c46.2,85.5,152.9,117.4,238.5,71.3c30.2-16.3,55-41.1,71.3-71.3c3-5.5,5.6-11.1,8-16.9c8.7-21.1,13.1-43.8,13-66.6&#10;&#9;&#9;C425.9,153,347,74.1,250,74L250,74z"/>
</g>
<g id="building_colosseum-59">
	<path class="st2_colosseum-59 targetColor" d="M314.2,249.2l7-21.5c0,0,58.2,1,77.7,21.5V335h-79.1L314.2,249.2z" style="fill: rgb(104, 225, 253);"/>
	<path class="st1_colosseum-59" d="M399,336.8h-79.2c-1,0-1.8-0.8-1.9-1.8l-5.6-85.8c0-0.2,0-0.5,0.1-0.7l7-21.5c0.2-0.8,1-1.3,1.8-1.3&#10;&#9;&#9;c2.4,0,59.3,1.3,79.1,22.1c0.3,0.4,0.5,0.8,0.5,1.3V335C400.8,336,400,336.8,399,336.8z M321.6,333h75.5v-83&#10;&#9;&#9;c-17.5-17.5-65.6-20-74.5-20.3l-6.5,19.8L321.6,333z"/>
	<path class="st2_colosseum-59 targetColor" d="M300.2,241.6h43.2l5.4,43.8c0,0,9.2,4,10,6.2s1.8,9.8,1.8,9.8l7.8,4.4V335h-69c0,0-18.7-67.9-15.9-75.3&#10;&#9;&#9;S300.2,241.6,300.2,241.6z" style="fill: rgb(104, 225, 253);"/>
	<path class="st1_colosseum-59" d="M368.4,336.8h-69.1c-0.9,0-1.6-0.6-1.8-1.4c-3.1-11.4-18.7-68.9-15.8-76.5c3-7.8,16.7-18.5,17.3-18.9&#10;&#9;&#9;c0.3-0.3,0.7-0.4,1.2-0.4h43.2c1,0,1.8,0.7,1.9,1.7l5.3,42.7c3.8,1.7,9.2,4.5,10.1,6.9c0.8,3.1,1.4,6.2,1.8,9.3l7,4&#10;&#9;&#9;c0.6,0.3,1,1,1,1.7V335C370.3,336,369.5,336.9,368.4,336.8z M300.8,333h65.8v-26.1l-6.9-3.9c-0.5-0.3-0.9-0.8-1-1.4&#10;&#9;&#9;c-0.4-3.2-0.9-6.3-1.7-9.4c-0.5-0.8-4.7-3.3-9-5.1c-0.6-0.3-1-0.8-1.1-1.5l-5.2-42.1h-40.9c-4.1,3.2-13.5,11.4-15.6,16.9&#10;&#9;&#9;C283.4,265.2,293.6,306.9,300.8,333z"/>
	<path class="st2_colosseum-59 targetColor" d="M102.7,335V215.5c0,0,17.8-26.8,60.3-47.4c41.8-20.2,84.5-24.9,84.5-24.9l19.8,43.4h10.2l4.8,52.5l16.6-2.4&#10;&#9;&#9;l5.4,44.7l16.6,2.7l7,50.9L102.7,335z" style="fill: rgb(104, 225, 253);"/>
	<path class="st1_colosseum-59" d="M327.9,336.8H102.7c-1,0-1.9-0.8-1.9-1.9V215.5c0-0.4,0.1-0.7,0.3-1c0.7-1.1,18.5-27.4,61.1-48.1&#10;&#9;&#9;c41.6-20.1,84.7-25.1,85.2-25.1c0.8-0.1,1.6,0.4,1.9,1.1l19.3,42.3h9c1,0,1.8,0.7,1.9,1.7l4.6,50.5l14.6-2.1c0.5-0.1,1,0.1,1.4,0.4&#10;&#9;&#9;c0.4,0.3,0.7,0.8,0.7,1.3l5.2,43.3l15.2,2.5c0.8,0.1,1.5,0.8,1.6,1.6l7,50.9c0.1,0.5-0.1,1.1-0.5,1.5&#10;&#9;&#9;C329.1,336.7,328.5,336.9,327.9,336.8z M104.6,333h221.1l-6.5-47.3l-15.2-2.5c-0.8-0.1-1.5-0.8-1.6-1.6l-5.1-42.8l-14.7,2.2&#10;&#9;&#9;c-0.5,0.1-1-0.1-1.4-0.4c-0.4-0.3-0.7-0.8-0.7-1.3l-4.7-50.8h-8.5c-0.7,0-1.4-0.4-1.7-1.1l-19.2-42.1c-7.6,1-45.7,6.7-82.6,24.6&#10;&#9;&#9;c-38.6,18.7-56.7,42.7-59.3,46.3L104.6,333z"/>
	<path class="st1_colosseum-59" d="M101,235.6c-1,0-1.9-0.9-1.9-1.9c0-0.4,0.1-0.8,0.4-1.1c47-63.4,157.6-74.2,158.7-74.3c1,0,1.9,0.8,2,1.8&#10;&#9;&#9;c0,1-0.7,1.8-1.6,2c-1.1,0.1-110,10.7-156,72.8C102.2,235.3,101.6,235.6,101,235.6z"/>
	<path class="st1_colosseum-59" d="M101,273.3c-1,0-1.9-0.8-1.9-1.9c0-0.6,0.3-1.2,0.8-1.6c65.6-45.6,180.3-44.1,181.5-44.1c1,0,1.9,0.9,1.9,1.9&#10;&#9;&#9;c0,1-0.8,1.8-1.8,1.9c0,0-0.1,0-0.1,0c-1.1,0-114.6-1.5-179.2,43.4C101.8,273.2,101.4,273.3,101,273.3z"/>
	<path class="st1_colosseum-59" d="M101,307.5c-1,0-1.9-0.9-1.9-1.9c0-0.7,0.4-1.3,1-1.7c24.4-12.9,66.2-20.9,124.3-23.8&#10;&#9;&#9;c43.1-2.2,79.6-0.6,80-0.6c1,0,1.9,0.9,1.8,2c0,0,0,0,0,0c0,1-0.9,1.8-1.9,1.8c0,0-0.1,0-0.1,0c-1.5-0.1-145.2-6.1-202.4,24&#10;&#9;&#9;C101.6,307.4,101.3,307.5,101,307.5z"/>
	<path class="st1_colosseum-59" d="M331.1,295.1c-10.6,0-10.6-0.5-10.8-2c-0.1-1,0.6-2,1.6-2.1c0,0,0,0,0,0c0.3,0,0.6,0,0.9,0.1&#10;&#9;&#9;c2.5,0.3,21.9,0.1,33.8-0.1c1,0,1.9,0.8,1.9,1.9c0,1-0.8,1.9-1.9,1.9c0,0,0,0,0,0C344.5,295,336.5,295.1,331.1,295.1z"/>
	<path class="st1_colosseum-59" d="M360.2,256.4c-1.6,0-2.9-1.3-2.9-2.8v0v-6.8c-0.1-1.6,1.1-2.9,2.7-3c1.6-0.1,2.9,1.1,3,2.7c0,0.1,0,0.2,0,0.3&#10;&#9;&#9;v6.8C363,255.1,361.7,256.4,360.2,256.4z"/>
	<path class="st1_colosseum-59" d="M379.8,260c-1.6,0-2.8-1.3-2.9-2.8v-6.9c0.1-1.6,1.4-2.8,3-2.7c1.4,0.1,2.6,1.2,2.7,2.7v6.9&#10;&#9;&#9;C382.7,258.7,381.4,260,379.8,260z"/>
	<path class="st1_colosseum-59" d="M116.7,248.8c-1.6,0-2.8-1.3-2.8-2.8v-7.3c0-1.6,1.3-2.8,2.8-2.8c1.6,0,2.8,1.3,2.8,2.8v7.3&#10;&#9;&#9;C119.6,247.5,118.3,248.8,116.7,248.8L116.7,248.8z"/>
	<path class="st1_colosseum-59" d="M116.7,284.4c-1.6,0-2.8-1.3-2.8-2.8v-7.3c0-1.6,1.3-2.8,2.8-2.8c1.6,0,2.8,1.3,2.8,2.8v7.3&#10;&#9;&#9;C119.6,283.1,118.3,284.4,116.7,284.4L116.7,284.4z"/>
	<path class="st1_colosseum-59" d="M116.7,321.7c-1.6,0-2.8-1.3-2.8-2.8v-7.3c0-1.6,1.3-2.8,2.8-2.8c1.6,0,2.8,1.3,2.8,2.8v7.3&#10;&#9;&#9;C119.6,320.4,118.3,321.7,116.7,321.7L116.7,321.7z"/>
	<path class="st1_colosseum-59" d="M134.2,321.7c-1.6,0-2.8-1.3-2.8-2.8v-7.3c0-1.6,1.3-2.8,2.8-2.8c1.6,0,2.8,1.3,2.8,2.8v7.3&#10;&#9;&#9;C137.1,320.4,135.8,321.7,134.2,321.7z"/>
	<path class="st1_colosseum-59" d="M151.7,321.7c-1.6,0-2.8-1.3-2.8-2.8v-7.3c0-1.6,1.3-2.8,2.8-2.8c1.6,0,2.8,1.3,2.8,2.8v7.3&#10;&#9;&#9;C154.6,320.4,153.3,321.7,151.7,321.7z"/>
	<path class="st1_colosseum-59" d="M169.2,321.7c-1.6,0-2.8-1.3-2.8-2.8v-7.3c0.1-1.6,1.4-2.8,3-2.7c1.4,0.1,2.6,1.2,2.7,2.7v7.3&#10;&#9;&#9;C172.1,320.5,170.8,321.7,169.2,321.7z"/>
	<path class="st1_colosseum-59" d="M186.7,321.7c-1.6,0-2.8-1.3-2.8-2.8v-7.3c0.1-1.6,1.4-2.8,3-2.7c1.4,0.1,2.6,1.2,2.7,2.7v7.3&#10;&#9;&#9;C189.5,320.5,188.3,321.7,186.7,321.7z"/>
	<path class="st1_colosseum-59" d="M204.2,321.7c-1.6,0-2.8-1.3-2.9-2.8v-7.3c0.1-1.6,1.4-2.8,3-2.7c1.4,0.1,2.6,1.2,2.7,2.7v7.3&#10;&#9;&#9;C207,320.4,205.8,321.7,204.2,321.7z"/>
	<path class="st1_colosseum-59" d="M221.7,321.7c-1.6,0-2.8-1.3-2.9-2.8v-7.3c0.1-1.6,1.4-2.8,3-2.7c1.4,0.1,2.6,1.2,2.7,2.7v7.3&#10;&#9;&#9;C224.5,320.4,223.3,321.7,221.7,321.7z"/>
	<path class="st1_colosseum-59" d="M239.2,321.7c-1.6,0-2.8-1.3-2.8-2.8v-7.3c0-1.6,1.3-2.8,2.8-2.8c1.6,0,2.8,1.3,2.8,2.8v7.3&#10;&#9;&#9;C242,320.4,240.7,321.7,239.2,321.7z"/>
	<path class="st1_colosseum-59" d="M256.7,321.7c-1.6,0-2.8-1.3-2.8-2.8v-7.3c0-1.6,1.3-2.8,2.8-2.8c1.6,0,2.8,1.3,2.8,2.8c0,0,0,0,0,0v7.3&#10;&#9;&#9;C259.5,320.4,258.2,321.7,256.7,321.7z"/>
	<path class="st1_colosseum-59" d="M274.2,321.7c-1.6,0-2.8-1.3-2.8-2.8v-7.3c0-1.6,1.3-2.8,2.8-2.8c1.6,0,2.8,1.3,2.8,2.8v7.3&#10;&#9;&#9;C277,320.4,275.7,321.7,274.2,321.7z"/>
	<path class="st1_colosseum-59" d="M291.6,321.7c-1.6,0-2.8-1.3-2.8-2.8v-7.3c0-1.6,1.3-2.8,2.8-2.8c1.6,0,2.8,1.3,2.8,2.8v7.3&#10;&#9;&#9;C294.5,320.4,293.2,321.7,291.6,321.7z"/>
	<path class="st1_colosseum-59" d="M309.1,321.7c-1.6,0-2.8-1.3-2.8-2.8v-7.3c0-1.6,1.3-2.8,2.8-2.8c1.6,0,2.8,1.3,2.8,2.8v7.3&#10;&#9;&#9;C312,320.4,310.7,321.7,309.1,321.7z"/>
	<path class="st1_colosseum-59" d="M133.6,279.3c-1.6,0-2.8-1.3-2.8-2.8v-7.3c0-1.6,1.3-2.8,2.8-2.8c1.6,0,2.8,1.3,2.8,2.8c0,0,0,0,0,0v7.3&#10;&#9;&#9;C136.4,278.1,135.2,279.3,133.6,279.3z"/>
	<path class="st1_colosseum-59" d="M152.5,274.3c-1.6,0-2.8-1.3-2.8-2.8v-7.3c0-1.6,1.3-2.8,2.8-2.8c1.6,0,2.8,1.3,2.8,2.8c0,0,0,0,0,0v7.3&#10;&#9;&#9;C155.3,273,154.1,274.3,152.5,274.3z"/>
	<path class="st1_colosseum-59" d="M173,269.2c-1.6,0-2.8-1.3-2.8-2.8V259c0.1-1.6,1.4-2.8,3-2.7c1.4,0.1,2.6,1.2,2.7,2.7v7.3&#10;&#9;&#9;C175.9,267.9,174.6,269.2,173,269.2C173,269.2,173,269.2,173,269.2z"/>
	<path class="st1_colosseum-59" d="M195.9,265.5c-1.6,0-2.9-1.2-2.9-2.8c0,0,0,0,0,0v-7.3c0-1.6,1.3-2.8,2.8-2.8c1.6,0,2.8,1.3,2.8,2.8v7.3&#10;&#9;&#9;C198.7,264.3,197.4,265.5,195.9,265.5z"/>
	<path class="st1_colosseum-59" d="M218.8,264.1c-1.6,0-2.8-1.3-2.9-2.8V254c0.1-1.6,1.4-2.8,3-2.7c1.4,0.1,2.6,1.2,2.7,2.7v7.3&#10;&#9;&#9;C221.6,262.9,220.3,264.1,218.8,264.1z"/>
	<path class="st1_colosseum-59" d="M242.1,261.9c-1.6,0-2.8-1.3-2.8-2.8v-7.3c0-1.6,1.3-2.8,2.8-2.8c1.6,0,2.8,1.3,2.8,2.8v7.3&#10;&#9;&#9;C244.9,260.6,243.6,261.9,242.1,261.9z"/>
	<path class="st1_colosseum-59" d="M265,261.9c-1.6,0-2.8-1.3-2.8-2.8v-7.3c0-1.6,1.3-2.8,2.8-2.8c1.6,0,2.8,1.3,2.8,2.8v7.3&#10;&#9;&#9;C267.8,260.6,266.6,261.9,265,261.9z"/>
	<path class="st1_colosseum-59" d="M283.2,261.9c-1.6,0-2.8-1.3-2.8-2.8v-7.3c0-1.6,1.3-2.8,2.8-2.8c1.6,0,2.8,1.3,2.8,2.8v7.3&#10;&#9;&#9;C286,260.6,284.8,261.9,283.2,261.9z"/>
	<path class="st1_colosseum-59" d="M133.6,234c-1.6,0-2.8-1.3-2.8-2.8v-7.3c0-1.6,1.3-2.8,2.8-2.8s2.8,1.3,2.8,2.8c0,0,0,0,0,0v7.3&#10;&#9;&#9;C136.4,232.7,135.2,234,133.6,234z"/>
	<path class="st1_colosseum-59" d="M154.1,222.5c-1.6,0-2.8-1.3-2.9-2.8v-7.3c0.1-1.6,1.4-2.8,3-2.7c1.4,0.1,2.6,1.2,2.7,2.7v7.3&#10;&#9;&#9;C156.9,221.2,155.7,222.5,154.1,222.5z"/>
	<path class="st1_colosseum-59" d="M175.8,213c-1.6,0-2.8-1.3-2.9-2.9v-7.3c-0.1-1.6,1.1-2.9,2.7-3c1.6-0.1,2.9,1.1,3,2.7c0,0.1,0,0.2,0,0.3v7.3&#10;&#9;&#9;C178.6,211.7,177.4,213,175.8,213z"/>
	<path class="st1_colosseum-59" d="M195.9,207.6c-1.6,0-2.8-1.3-2.8-2.8v-7.3c0-1.6,1.3-2.8,2.8-2.8c1.6,0,2.8,1.3,2.8,2.8v7.3&#10;&#9;&#9;C198.7,206.3,197.4,207.6,195.9,207.6z"/>
	<path class="st1_colosseum-59" d="M218.8,203.9c-1.6,0-2.8-1.3-2.8-2.8c0,0,0,0,0,0v-7.3c0.1-1.6,1.4-2.8,3-2.7c1.4,0.1,2.6,1.2,2.7,2.7v7.3&#10;&#9;&#9;C221.6,202.6,220.3,203.9,218.8,203.9z"/>
	<path class="st1_colosseum-59" d="M242.1,200.3c-1.6,0-2.8-1.3-2.8-2.9v-7.3c0-1.6,1.3-2.8,2.8-2.8s2.8,1.3,2.8,2.8c0,0,0,0,0,0v7.3&#10;&#9;&#9;C244.9,199,243.6,200.3,242.1,200.3z"/>
	<path class="st1_colosseum-59" d="M324.4,272c-1.6,0-2.8-1.3-2.9-2.8v-7.9c-0.1-1.6,1.1-2.9,2.7-3c1.6-0.1,2.9,1.1,3,2.7c0,0.1,0,0.2,0,0.3v7.9&#10;&#9;&#9;C327.2,270.7,326,272,324.4,272z"/>
	<path class="st1_colosseum-59" d="M398.3,278.4c-0.2,0-0.4,0-0.6-0.1c-21.6-7.5-51.1-10-51.4-10c-1-0.1-1.8-1-1.7-2c0.1-1,1-1.8,2-1.7&#10;&#9;&#9;c0,0,0,0,0.1,0c0.3,0,30.3,2.6,52.4,10.2c1,0.3,1.5,1.4,1.2,2.4C399.9,277.9,399.1,278.4,398.3,278.4L398.3,278.4z"/>
	<path class="st1_colosseum-59" d="M372.4,295.8c-1.6,0-2.8-1.3-2.8-2.8v-8.8c0-1.6,1.3-2.8,2.8-2.8c1.6,0,2.8,1.3,2.8,2.8c0,0,0,0,0,0v8.8&#10;&#9;&#9;C375.2,294.5,373.9,295.8,372.4,295.8z"/>
	<path class="st1_colosseum-59" d="M387.5,295.8c-1.6,0-2.8-1.3-2.8-2.8v-8.8c0-1.6,1.3-2.8,2.8-2.8c1.6,0,2.8,1.3,2.8,2.8c0,0,0,0,0,0v8.8&#10;&#9;&#9;C390.3,294.5,389,295.8,387.5,295.8z"/>
	<path class="st1_colosseum-59" d="M387.5,322.5c-1.6,0-2.8-1.3-2.8-2.9v-8.8c0-1.6,1.3-2.8,2.8-2.8c1.6,0,2.8,1.3,2.8,2.8c0,0,0,0,0,0v8.8&#10;&#9;&#9;C390.3,321.2,389,322.5,387.5,322.5z"/>
	<path class="st1_colosseum-59" d="M346.4,321.9c-1.6,0-2.8-1.3-2.8-2.8v-6.6c0-1.6,1.3-2.8,2.8-2.8c1.6,0,2.8,1.3,2.8,2.8c0,0,0,0,0,0v6.5&#10;&#9;&#9;C349.3,320.6,348,321.9,346.4,321.9C346.4,321.9,346.4,321.9,346.4,321.9z"/>
</g>
<g id="clouds_colosseum-59">
	<path class="st3_colosseum-59" d="M186.1,145.2h-43.6c-5.4,0-9.8-3.6-9.8-8c0-3.4,2.5-6.3,6.3-7.5c1.6-3,5-5.1,9-5.6c1.2-4.1,5.8-7.1,11.1-7.1&#10;&#9;&#9;c4.3,0,8.1,1.9,10,4.8c2.2-1,4.6-1.5,7-1.4c7.2,0,13.1,4,14.3,9.6c3.3,1.4,5.4,4.1,5.4,7.2C195.9,141.6,191.5,145.2,186.1,145.2z&#10;&#9;&#9; M149.4,127.9c-3.3,0-6.3,1.7-7.2,4.1c-0.2,0.6-0.7,1-1.4,1.2c-2.5,0.6-4.3,2.2-4.3,4c0,2.3,2.8,4.2,6,4.2h43.6c3.2,0,6-1.9,6-4.2&#10;&#9;&#9;c0-1.7-1.5-3.3-3.8-3.9c-0.8-0.2-1.3-0.9-1.4-1.6c-0.4-4.2-5.1-7.4-10.8-7.4c-2.4,0-4.8,0.6-6.8,1.8c-0.5,0.3-1.1,0.4-1.6,0.2&#10;&#9;&#9;c-0.5-0.2-1-0.6-1.2-1.2c-0.9-2.5-3.9-4.2-7.4-4.2c-4,0-7.4,2.3-7.7,5.2C151.4,127.2,150.4,128,149.4,127.9&#10;&#9;&#9;C149.4,127.9,149.4,127.9,149.4,127.9z"/>
	<path class="st3_colosseum-59" d="M171.6,133.1c-0.9,0-1.7-0.7-1.9-1.6c-0.3-1.6-1.2-3-2.6-4c-1.4-0.8-3.2-0.9-5.5-0.2c-1,0.3-2.1-0.3-2.3-1.4&#10;&#9;&#9;c-0.2-0.9,0.3-1.9,1.2-2.3c3.4-1.1,6.3-0.9,8.7,0.6c2.2,1.5,3.8,3.9,4.3,6.5c0.2,1-0.5,2-1.6,2.2L171.6,133.1z"/>
	<path class="st3_colosseum-59" d="M377.8,201h-42.5c-5.3,0-9.6-3.5-9.6-7.9c0-3,2.1-5.7,5.2-7c1.2-5.4,7-9.4,14-9.4c2.3,0,4.7,0.5,6.8,1.4&#10;&#9;&#9;c2.3-3.1,6-4.8,9.8-4.7c5.2,0,9.7,2.9,10.9,6.9c3.6,0.3,6.9,2.3,8.8,5.4c3.7,1.2,6.1,4.1,6.1,7.4C387.4,197.4,383.1,201,377.8,201z&#10;&#9;&#9; M345,180.5c-5.5,0-10.1,3.1-10.4,7.2c-0.1,0.8-0.6,1.4-1.4,1.6c-2.2,0.6-3.7,2.1-3.7,3.8c0,2.2,2.7,4.1,5.8,4.1h42.5&#10;&#9;&#9;c3.1,0,5.8-1.9,5.8-4.1c0-1.8-1.7-3.4-4.1-3.9c-0.6-0.1-1.1-0.6-1.4-1.2c-0.9-2.3-3.9-4-7.2-4c-1,0-1.8-0.8-1.9-1.8&#10;&#9;&#9;c-0.2-2.8-3.5-5.1-7.4-5.1c-3.4,0-6.4,1.7-7.2,4.1c-0.3,1-1.4,1.5-2.4,1.2c-0.1,0-0.3-0.1-0.4-0.2&#10;&#9;&#9;C349.6,181.1,347.3,180.5,345,180.5z"/>
	<path class="st3_colosseum-59" d="M359.1,190.8c-1,0-1.8-0.8-1.9-1.8c-0.3-4.3-5.3-6.6-5.3-6.6c-1-0.4-1.4-1.5-1-2.5c0.4-1,1.5-1.4,2.5-1l0,0&#10;&#9;&#9;c0.3,0.1,7.1,3.2,7.6,9.8c0.1,1-0.7,1.9-1.8,2L359.1,190.8z"/>
	<path class="st3_colosseum-59" d="M325.6,133.4h-53.1c-6.4,0-11.5-4.2-11.5-9.4c0-3.6,2.6-6.9,6.5-8.4c1.4-6.6,8.6-11.6,17.1-11.6&#10;&#9;&#9;c3,0,6,0.6,8.7,1.9c2.3-3.6,6.9-6,12.1-6c6.4,0,11.9,3.7,13.2,8.6c4.9,0.5,9.1,3,11,6.7c4.5,1.3,7.5,4.8,7.5,8.8&#10;&#9;&#9;C337.1,129.2,331.9,133.4,325.6,133.4z M284.6,107.8c-7.1,0-13,4.1-13.5,9.4c-0.1,0.8-0.6,1.4-1.4,1.7c-2.9,0.8-4.9,2.9-4.9,5.2&#10;&#9;&#9;c0,3,3.5,5.6,7.7,5.6h53.1c4.2,0,7.7-2.6,7.7-5.6c0-2.4-2.3-4.6-5.5-5.3c-0.6-0.1-1.1-0.6-1.4-1.2c-1.2-3.1-5-5.3-9.4-5.3&#10;&#9;&#9;c-0.5,0-0.9-0.1-1.2-0.4c-0.4-0.3-0.7-0.8-0.7-1.3c-0.3-3.8-4.6-6.8-9.8-6.8c-4.5,0-8.3,2.2-9.5,5.4c-0.2,0.5-0.6,1-1.2,1.2&#10;&#9;&#9;c-0.5,0.2-1.1,0.1-1.6-0.2C290.5,108.5,287.5,107.7,284.6,107.8L284.6,107.8z"/>
	<path class="st3_colosseum-59" d="M286.4,117.6c-1,0-1.9-0.8-1.9-1.9c0-0.5,0.2-0.9,0.5-1.2c9.3-10.8,19.3-3.4,19.4-3.3c0.8,0.7,0.8,1.9,0.1,2.7&#10;&#9;&#9;c-0.6,0.7-1.6,0.8-2.4,0.3c-0.7-0.6-7.4-5.1-14.2,2.8C287.5,117.3,287,117.6,286.4,117.6z"/>
</g>
<g id="grass_colosseum-59">
	<path class="st4_colosseum-59" d="M406.5,334.4c-46.7,86.5-154.6,118.7-241,72.1C135,390,109.9,365,93.5,334.4H406.5z"/>
	<path class="st1_colosseum-59" d="M250,429.7c-66.1,0-126.8-36.2-158.2-94.4c-0.5-0.9-0.2-2.1,0.8-2.6c0.3-0.1,0.6-0.2,0.9-0.2h313.1&#10;&#9;&#9;c1,0,1.9,0.9,1.9,1.9c0,0.3-0.1,0.6-0.2,0.9C376.9,393.5,316.1,429.8,250,429.7z M96.7,336.3C144.4,421,251.7,451,336.4,403.3&#10;&#9;&#9;c28-15.8,51.1-38.9,66.9-66.9H96.7z"/>
	<path class="st1_colosseum-59" d="M379.8,360h-23.2c-1-0.1-1.8-1-1.8-2c0.1-0.9,0.8-1.7,1.8-1.8h23.2c1,0.1,1.8,1,1.8,2&#10;&#9;&#9;C381.5,359.2,380.8,359.9,379.8,360z"/>
	<path class="st1_colosseum-59" d="M154.1,373.9h-14c-1,0.1-2-0.7-2-1.8c-0.1-1,0.7-2,1.8-2c0.1,0,0.2,0,0.3,0h14c1,0.1,1.8,1,1.8,2&#10;&#9;&#9;C155.8,373.1,155,373.8,154.1,373.9z"/>
	<path class="st1_colosseum-59" d="M324.4,389.9h-21.2c-1,0.1-2-0.7-2-1.8c-0.1-1,0.7-2,1.8-2c0.1,0,0.2,0,0.3,0h21.2c1,0.1,1.8,1,1.8,2&#10;&#9;&#9;C326.1,389.1,325.4,389.9,324.4,389.9z"/>
</g>
</svg>